<?xml version="1.0" standalone="no"?>
<!DOCTYPE svg PUBLIC "-//W3C//DTD SVG 20010904//EN"
 "http://www.w3.org/TR/2001/REC-SVG-20010904/DTD/svg10.dtd">
<svg version="1.0" xmlns="http://www.w3.org/2000/svg"
 width="2272.000000pt" height="1704.000000pt" viewBox="0 0 2272.000000 1704.000000"
 preserveAspectRatio="xMidYMid meet">

<g transform="translate(0.000000,1704.000000) scale(0.100000,-0.100000)"
fill="#000000" stroke="none">
<path d="M9342 12588 c52 -57 648 -713 1324 -1458 677 -745 1485 -1636 1797
-1980 312 -343 566 -627 565 -631 -2 -4 -235 -263 -519 -576 -284 -312 -1120
-1234 -1859 -2048 -738 -814 -1356 -1495 -1373 -1513 l-31 -32 1626 0 1625 0
1889 2080 c1039 1145 1890 2084 1892 2088 2 7 -388 439 -2984 3297 l-790 870
-1628 3 -1629 2 95 -102z"/>
<path d="M8690 10164 c-288 -399 -527 -727 -530 -729 -3 -2 -385 120 -849 271
-464 151 -848 273 -853 272 -5 -2 228 -329 518 -727 468 -644 525 -727 515
-744 -7 -10 -244 -338 -528 -729 -283 -390 -513 -711 -511 -713 1 -1 271 85
598 191 327 107 711 232 852 278 l258 84 527 -730 528 -729 3 903 2 903 848
274 c466 151 851 278 856 282 4 4 -81 36 -190 71 -110 36 -495 161 -856 278
l-658 214 -2 902 -3 903 -525 -725z"/>
</g>
</svg>
